Coordinates
version=1
nRows=4
nColumns=63
inDegrees=yes

Units are S.I. units (second, meters, Newtons, ...)
If the header above contains a line with 'inDegrees', this indicates whether rotational values are in degrees (yes) or radians (no).

endheader
time	pelvis_tilt	pelvis_list	pelvis_rotation	pelvis_tx	pelvis_ty	pelvis_tz	hip_flexion_r	hip_adduction_r	hip_rotation_r	knee_angle_r	knee_angle_r_beta	ankle_angle_r	subtalar_angle_r	mtp_angle_r	hip_flexion_l	hip_adduction_l	hip_rotation_l	knee_angle_l	knee_angle_l_beta	ankle_angle_l	subtalar_angle_l	mtp_angle_l	L5_S1_Flex_Ext	L5_S1_Lat_Bending	L5_S1_axial_rotation	L4_L5_Flex_Ext	L4_L5_Lat_Bending	L4_L5_axial_rotation	L3_L4_Flex_Ext	L3_L4_Lat_Bending	L3_L4_axial_rotation	L2_L3_Flex_Ext	L2_L3_Lat_Bending	L2_L3_axial_rotation	L1_L2_Flex_Ext	L1_L2_Lat_Bending	L1_L2_axial_rotation	L1_T12_Flex_Ext	L1_T12_Lat_Bending	L1_T12_axial_rotation	Abs_r3	Abs_r2	Abs_r1	Abs_t1	Abs_t2	neck_flexion	neck_bending	neck_rotation	arm_flex_r	arm_add_r	arm_rot_r	elbow_flex_r	pro_sup_r	wrist_flex_r	wrist_dev_r	arm_flex_l	arm_add_l	arm_rot_l	elbow_flex_l	pro_sup_l	wrist_flex_l	wrist_dev_l
      0.00000000	     -6.54497800	     -5.76738893	     90.27315890	      0.20108442	      0.93556971	      0.69058277	      2.05412306	     -2.29772507	      2.04957225	      2.97463119	      0.05191711	     20.87027168	     -6.42037636	      0.00000000	      2.89116438	      1.49110740	     -5.69385442	      4.68638553	      0.08179286	     24.29859257	     14.51270209	      0.00000000	      0.05275464	     -0.12075945	      0.19042766	      0.09797064	     -0.16061007	      0.20232938	      0.08667060	     -0.29361453	      0.20232938	      0.06029328	     -0.29361453	      0.16662420	      0.04898796	     -0.24625268	      0.15472247	      0.03014400	     -0.18705639	      0.14282074	      0.37682111	     -1.36605509	      1.05910150	      0.00000000	      0.00000000	     23.21914419	     -3.32725688	     -4.59248550	     16.76201214	     -3.91458478	     47.51178969	     47.03067067	     87.75029925	     -0.98241343	     24.91087722	     15.86427717	     -8.06005071	     46.63362563	     37.41468091	     76.58376116	      2.15306488	     -1.60668691
      0.02000000	     -6.24461862	     -5.59089879	     91.34044199	      0.20203048	      0.93632397	      0.68690014	      1.07905981	     -1.76381171	      3.47090232	      2.08011961	      0.03630494	     19.57055958	     -9.99789409	      0.00000000	      2.46235371	      1.13084564	     -4.41483607	      4.62747013	      0.08076459	     24.24380178	     13.69551827	      0.00000000	      0.05992391	     -0.12816291	      0.19857140	      0.11128469	     -0.17045667	      0.21098211	      0.09844899	     -0.31161530	      0.21098211	      0.06848703	     -0.31161530	      0.17374997	      0.05564534	     -0.26134980	      0.16133926	      0.03424052	     -0.19852435	      0.14892855	      0.42803047	     -1.44980446	      1.10439453	      0.00000000	      0.00000000	     23.34728644	     -3.54914289	     -6.31345588	     14.52664604	     -3.60406715	     44.25443062	     47.49468460	     86.34332506	     -6.20053849	     23.58795326	     17.04872593	     -8.49541958	     52.73282625	     37.10923775	     67.90998345	      2.10836681	      1.44917011
      0.04000000	     -5.99486256	     -5.42556862	     92.31623254	      0.20269931	      0.93673546	      0.68414369	      0.42564152	     -1.35675463	      2.71928399	      1.72409574	      0.03009115	     19.41656461	    -10.19188177	      0.00000000	      2.20073621	      0.78119697	     -3.94312604	      4.81863862	      0.08410111	     24.31956491	     13.77986191	      0.00000000	      0.07169575	     -0.13612337	      0.13792506	      0.13314617	     -0.18104409	      0.14654538	      0.11778894	     -0.33097037	      0.14654538	      0.08194107	     -0.33097037	      0.12068443	      0.06657667	     -0.27758278	      0.11206411	      0.04096695	     -0.21085511	      0.10344380	      0.51211555	     -1.53985483	      0.76709781	      0.00000000	      0.00000000	     23.31391763	     -3.43778681	     -7.27859585	     13.27379631	     -3.25272019	     42.52391689	     47.59765335	     85.48309198	     -8.98668080	     22.19046233	     17.53939894	     -8.75208149	     55.26214425	     36.94268563	     66.75808386	      2.73656096	      2.97295487
      0.06000000	     -5.73522099	     -5.11908384	     93.10470797	      0.20312419	      0.93716107	      0.68200486	     -0.25585599	     -0.95790585	      1.83397243	      1.47481766	      0.02574042	     19.35822516	     -9.97406265	      0.00000000	      1.76426562	      0.43694772	     -3.36512115	      4.86423852	      0.08489698	     24.29520984	     13.57422441	      0.00000000	      0.07002076	     -0.13093638	      0.08489340	      0.13003555	     -0.17414538	      0.09019924	      0.11503710	     -0.31835871	      0.09019924	      0.08002672	     -0.31835871	      0.07428173	      0.06502127	     -0.26700546	      0.06897589	      0.04000986	     -0.20282045	      0.06367005	      0.50015126	     -1.48117850	      0.47215165	      0.00000000	      0.00000000	     22.97472105	     -3.27302469	     -7.64227915	     12.68912468	     -3.15073059	     41.80730228	     47.57416166	     85.43843916	     -9.92276795	     20.97075052	     18.42151615	     -9.09153201	     59.99870514	     36.56787240	     61.12454541	      1.77883472	      1.72644246
